<?xml version="1.0" ?>
<!DOCTYPE svg  PUBLIC '-//W3C//DTD SVG 1.1//EN'  'http://www.w3.org/Graphics/SVG/1.1/DTD/svg11.dtd'>
<!-- Uploaded to: SVG Repo, www.svgrepo.com, Generator: SVG Repo Mixer Tools -->
<svg width="800px" height="800px" viewBox="0 0 24 24" enable-background="new 0 0 24 24" version="1.1" xml:space="preserve" xmlns="http://www.w3.org/2000/svg" xmlns:xlink="http://www.w3.org/1999/xlink">
<g id="Layer_27"/>
<g id="Layer_2"/>
<g id="Layer_3">
<g>
<path d="M20,14c0,4.41-3.59,8-8,8s-8-3.59-8-8c0-4.41,3.59-8,8-8S20,9.59,20,14z" fill="#D34A4B"/>
</g>
<g>
<path d="M15,13c-0.5527,0-1-0.4473-1-1V4h-4v8c0,0.5527-0.4478,1-1,1s-1-0.4473-1-1V4c0-1.1025,0.897-2,2-2h4    c1.1025,0,2,0.8975,2,2v8C16,12.5527,15.5527,13,15,13z" fill="#95CF4E"/>
</g>
</g>
<g id="Layer_4"/>
<g id="Layer_5"/>
<g id="Layer_6"/>
<g id="Layer_7"/>
<g id="Layer_8"/>
<g id="Layer_9"/>
<g id="Layer_10"/>
<g id="Layer_11"/>
<g id="Layer_12"/>
<g id="Layer_13"/>
<g id="Layer_14"/>
<g id="Layer_15"/>
<g id="Layer_16">
<g id="Layer_17"/>
</g>
<g id="Layer_18"/>
<g id="Layer_19"/>
<g id="Layer_20"/>
<g id="Layer_21"/>
<g id="Layer_22"/>
<g id="Layer_23"/>
<g id="Layer_24"/>
<g id="Layer_25"/>
<g id="Layer_26"/>
</svg>